#!OML:ASF F:\VICON\USERDATA\INSTALL\SteveWalk\SteveWalk.ASF
:FULLY-SPECIFIED
:DEGREES
47
root -0.580708 15.9261 -36.4506 18.0206 -4.4528 0.725985
lowerback -15.9323 2.39718 -3.02841
upperback -5.50046 3.63429 -0.365293
thorax 2.90256 1.8213 1.97538
lowerneck -4.74086 -1.34978 0.574808
upperneck 8.54619 -1.61249 -2.74992
head 3.57636 -0.893997 -1.07937
rclavicle -8.14862e-015 -9.0944e-015
rhumerus -14.613 8.71807 -83.8326
rradius 55.8667
rwrist -16.0551
rhand -19.0823 -33.1987
rfingers 7.12502
rthumb 7.22575 -63.0553
lclavicle -8.14862e-015 -9.0944e-015
lhumerus -80.0173 33.9375 22.2128
lradius 9.37177
lwrist -57.201
lhand -14.6605 -17.1056
lfingers 7.12502
lthumb 11.4921 12.5594
rfemur 1.01213 -1.3357 17.6958
rtibia 27.652
rfoot -14.1703 16.8039
rtoes -16.7755
lfemur -50.6498 0.522783 -19.2759
ltibia 24.7298
lfoot -2.54703 -1.80366
ltoes -18.2771
48
root -0.56665 15.9224 -36.1904 18.1907 -3.67779 1.10013
lowerback -16.382 2.16003 -3.38992
upperback -5.47618 3.40543 -0.581307
thorax 3.17039 1.70234 1.93494
lowerneck -4.7292 -1.43601 0.624295
upperneck 8.34613 -1.76544 -2.41588
head 3.50274 -0.953411 -0.981524
rclavicle 2.21955e-014 -1.70209e-015
rhumerus -15.5463 8.09533 -84.0106
rradius 56.2409
rwrist -16.0718
rhand -19.2535 -33.0225
rfingers 7.12502
rthumb 7.06044 -62.8848
lclavicle 2.21955e-014 -1.70209e-015
lhumerus -79.9506 34.2739 21.6237
lradius 9.5332
lwrist -57.0357
lhand -14.7972 -14.4525
lfingers 7.12502
lthumb 11.3603 15.2197
rfemur 0.600188 -1.52626 17.5395
rtibia 29.455
rfoot -11.0758 17.1172
rtoes -16.5577
lfemur -51.2469 -0.0725458 -19.6963
ltibia 26.6126
lfoot -2.00835 -3.45633
ltoes -17.999
49
root -0.546215 15.9083 -35.9182 18.0375 -2.89251 1.71437
lowerback -17.1798 1.84642 -3.97137
upperback -4.96659 3.14579 -0.740325
thorax 4.12475 1.54473 2.0983
lowerneck -4.9234 -1.58049 0.567577
upperneck 7.87639 -1.97906 -2.2185
head 3.37521 -1.0523 -0.91227
rclavicle -1.88824e-014 -1.35919e-014
rhumerus -16.1454 7.59032 -83.9709
rradius 56.6517
rwrist -16.0505
rhand -19.3238 -33.0038
rfingers 7.12502
rthumb 6.99256 -62.8683
lclavicle -1.88824e-014 -1.35919e-014
lhumerus -79.7545 35.4151 21.2606
lradius 9.36851
lwrist -57.3611
lhand -15.2289 -13.2492
lfingers 7.12502
lthumb 10.944 16.4456
rfemur 0.365361 -2.08149 17.0923
rtibia 31.6517
rfoot -7.87608 17.3634
rtoes -18.8679
lfemur -51.3802 -0.792416 -20.4057
ltibia 28.5541
lfoot -1.74502 -4.575
ltoes -17.4379
50
root -0.531667 15.8934 -35.6575 18.0022 -2.88246 2.12108
lowerback -16.8584 1.85396 -4.43709
upperback -5.24386 3.22092 -0.982401
thorax 3.64158 1.59738 2.09651
lowerneck -5.08414 -1.64451 0.374211
upperneck 8.19697 -2.08733 -1.71823
head 3.52223 -1.09307 -0.725503
rclavicle 2.44899e-014 1.43622e-014
rhumerus -18.0024 7.0167 -84.1781
rradius 57.1646
rwrist -16.0632
rhand -19.1049 -32.4895
rfingers 7.12502
rthumb 7.20387 -62.3469
lclavicle 2.44899e-014 1.43622e-014
lhumerus -79.979 35.3297 20.5386
lradius 9.28663
lwrist -57.7934
lhand -15.2426 -13.9005
lfingers 7.12502
lthumb 10.9307 15.7949
rfemur -0.296671 -2.03269 16.5464
rtibia 34.1712
rfoot -4.17267 17.3537
rtoes -20.5155
lfemur -51.5443 -0.99673 -20.9773
ltibia 30.5558
lfoot -2.1152 -4.64312
ltoes -16.1222
